HIERARCHY
ROOT Hips
{
  OFFSET 0.0000 0.0000 0.0000
  CHANNELS 6 Xposition Yposition Zposition Zrotation Xrotation Yrotation
  JOINT LeftHip
  {
    OFFSET 3.7500 0.0000 -0.0000
    CHANNELS 3 Zrotation Xrotation Yrotation
    JOINT LeftKnee
    {
      OFFSET -0.0000 -15.5000 -0.0000
      CHANNELS 3 Zrotation Xrotation Yrotation
      JOINT LeftAnkle
      {
        OFFSET -0.0000 -15.5000 0.0000
        CHANNELS 3 Zrotation Xrotation Yrotation
        End Site
        {
          OFFSET 0.0000 -2.5296 0.0000
        }
      }
    }
  }
  JOINT RightHip
  {
    OFFSET -3.7500 0.0000 0.0000
    CHANNELS 3 Zrotation Xrotation Yrotation
    JOINT RightKnee
    {
      OFFSET 0.0000 -15.5000 -0.0000
      CHANNELS 3 Zrotation Xrotation Yrotation
      JOINT RightAnkle
      {
        OFFSET 0.0000 -15.5000 0.0000
        CHANNELS 3 Zrotation Xrotation Yrotation
        End Site
        {
          OFFSET 0.0000 -2.5296 0.0000
        }
      }
    }
  }
  JOINT Chest
  {
    OFFSET -0.0000 4.5700 0.0000
    CHANNELS 3 Zrotation Xrotation Yrotation
    JOINT Chest2
    {
      OFFSET -0.0000 8.1184 -0.0000
      CHANNELS 3 Zrotation Xrotation Yrotation
      JOINT LeftCollar
      {
        OFFSET 1.5000 9.7058 0.5000
        CHANNELS 3 Zrotation Xrotation Yrotation
        JOINT LeftShoulder
        {
          OFFSET 5.2500 0.0000 0.0000
          CHANNELS 3 Zrotation Xrotation Yrotation
          JOINT LeftElbow
          {
            OFFSET 0.0000 -11.0000 0.0000
            CHANNELS 3 Zrotation Xrotation Yrotation
            JOINT LeftWrist
            {
              OFFSET 0.0000 -9.8200 -0.0000
              CHANNELS 3 Zrotation Xrotation Yrotation
              End Site
              {
                OFFSET 0.0000 -7.0000 0.0000
              }
            }
          }
        }
      }
      JOINT RightCollar
      {
        OFFSET -1.5000 9.7058 0.5000
        CHANNELS 3 Zrotation Xrotation Yrotation
        JOINT RightShoulder
        {
          OFFSET -5.2500 -0.0000 0.0000
          CHANNELS 3 Zrotation Xrotation Yrotation
          JOINT RightElbow
          {
            OFFSET 0.0000 -11.0000 0.0000
            CHANNELS 3 Zrotation Xrotation Yrotation
            JOINT RightWrist
            {
              OFFSET 0.0000 -9.8200 0.0000
              CHANNELS 3 Zrotation Xrotation Yrotation
              End Site
              {
                OFFSET -0.0000 -7.0000 0.0000
              }
            }
          }
        }
      }
      JOINT Neck
      {
        OFFSET 0.0000 9.5000 -0.0000
        CHANNELS 3 Zrotation Xrotation Yrotation
        JOINT Head
        {
          OFFSET 0.0000 5.2180 0.0000
          CHANNELS 3 Zrotation Xrotation Yrotation
          End Site
          {
            OFFSET 0.0000 4.1400 0.0000
          }
        }
      }
    }
  }
}
MOTION
Frames:	13
Frame Time:	0.033333
4.8950 31.4941 -10.2805 14.65 11.87 -27.70 -7.57 -29.80 8.64 -21.99 50.83 29.23 6.17 -27.81 1.18 -7.36 -54.21 -15.84 9.09 25.04 -66.91 -18.52 -12.05 0.23 1.51 10.22 -6.35 -2.63 14.84 -5.27 -26.29 3.98 -2.72 54.62 -30.33 10.47 14.49 -87.04 13.40 -10.50 4.98 48.67 19.61 0.77 -4.15 -65.83 -44.03 43.15 -152.57 -60.41 -154.07 -20.82 33.28 -20.89 8.98 19.07 4.33 -26.64 -49.80 11.94 
4.9637 31.4210 -10.9785 14.53 11.75 -25.89 -7.45 -30.23 8.27 -21.47 50.69 26.73 6.50 -28.55 1.26 -8.06 -54.29 -16.12 8.58 23.49 -67.79 -19.18 -10.76 0.44 1.29 10.50 -6.28 -3.22 14.83 -5.10 -26.23 3.97 -2.70 54.13 -30.17 10.53 14.70 -87.07 13.61 -10.95 5.24 48.19 19.72 0.79 -4.09 -65.76 -43.84 42.92 -152.59 -60.56 -154.06 -21.32 33.60 -21.35 8.77 19.18 4.15 -25.94 -49.98 11.45 
5.0201 31.3333 -11.6464 14.28 11.50 -24.36 -6.93 -30.60 8.37 -21.36 50.79 24.36 7.05 -29.24 1.38 -7.93 -53.77 -15.66 7.84 21.19 -68.33 -20.57 -9.70 0.66 1.03 10.85 -6.08 -3.72 14.94 -4.81 -26.10 3.91 -2.60 53.62 -29.98 10.35 16.59 -87.24 15.50 -11.44 5.50 47.93 19.82 0.77 -4.16 -65.85 -43.55 42.90 -152.74 -60.41 -154.22 -22.36 33.64 -21.42 8.54 19.15 3.99 -24.99 -49.92 11.12 
5.0809 31.2536 -12.2947 13.96 11.15 -23.04 -6.42 -30.93 8.60 -21.39 50.81 22.68 8.29 -29.64 1.66 -7.92 -53.38 -15.30 7.27 19.49 -68.63 -21.32 -8.31 0.92 0.85 11.19 -5.88 -4.42 15.09 -4.46 -25.95 3.82 -2.43 53.44 -29.70 10.06 20.26 -87.51 19.17 -11.83 5.90 47.77 20.03 0.74 -4.27 -65.88 -43.42 43.00 -152.88 -60.22 -154.39 -23.23 33.96 -21.80 8.47 19.15 3.85 -23.90 -49.79 11.04 
5.1680 31.1925 -12.9496 13.54 10.90 -21.88 -6.07 -31.51 8.67 -21.16 50.87 21.49 9.79 -29.84 2.01 -8.38 -53.48 -15.50 7.08 18.71 -68.77 -21.13 -6.22 1.24 0.32 11.68 -5.44 -4.04 14.77 -4.27 -26.39 3.85 -2.40 53.59 -29.16 9.69 23.43 -87.64 22.33 -11.90 6.24 47.19 19.92 0.72 -4.29 -66.20 -43.20 42.99 -152.98 -60.00 -154.52 -23.78 34.43 -22.50 7.88 19.63 3.68 -23.13 -49.69 10.54 
5.2738 31.1345 -13.6069 13.01 10.74 -20.78 -5.95 -32.36 8.38 -20.48 51.10 20.28 10.97 -29.97 2.31 -9.25 -53.90 -16.18 7.17 18.47 -68.85 -20.64 -3.65 1.58 -0.53 12.06 -4.89 -2.72 14.55 -4.29 -27.06 3.87 -2.29 53.54 -28.66 9.30 26.79 -87.84 25.69 -11.66 6.31 46.89 19.48 0.68 -4.38 -66.65 -43.22 42.73 -153.00 -60.01 -154.54 -24.14 35.00 -22.64 6.91 19.78 3.62 -22.23 -49.31 10.11 
5.3842 31.0782 -14.2594 12.34 10.54 -19.69 -5.92 -33.15 7.84 -19.43 51.32 18.81 12.01 -30.06 2.56 -10.19 -54.28 -16.96 7.33 18.51 -68.69 -20.15 -0.83 1.94 -0.58 12.06 -4.70 -2.80 14.72 -4.10 -27.00 3.85 -2.26 53.53 -28.20 9.23 29.35 -88.05 28.24 -11.46 6.09 47.41 19.53 0.71 -4.29 -67.02 -42.98 42.53 -152.87 -60.15 -154.39 -25.14 34.34 -22.40 6.72 20.02 3.46 -21.21 -49.21 9.86 
5.4778 31.0335 -14.9172 11.53 10.28 -18.79 -5.60 -33.90 7.53 -18.46 51.54 17.40 12.96 -29.92 2.78 -10.83 -54.63 -17.46 7.50 18.83 -68.06 -19.40 2.37 2.28 -0.59 12.23 -4.40 -2.93 14.73 -3.76 -26.87 3.87 -2.33 53.48 -27.91 9.18 30.16 -88.13 29.06 -11.44 5.80 48.06 19.65 0.73 -4.26 -67.13 -42.60 42.65 -152.73 -60.14 -154.27 -25.96 33.67 -22.56 6.78 20.33 3.22 -20.22 -49.27 9.55 
5.5575 31.0216 -15.5797 10.71 10.06 -18.18 -4.94 -34.65 7.62 -17.77 51.60 16.36 13.84 -29.46 2.92 -11.68 -55.31 -18.14 7.85 19.96 -66.54 -17.89 6.30 2.55 -0.87 12.46 -3.92 -2.77 14.63 -3.40 -26.83 3.86 -2.32 53.21 -27.83 9.09 29.99 -88.03 28.88 -11.55 5.56 48.01 19.73 0.71 -4.32 -66.92 -42.38 42.92 -152.51 -60.24 -154.05 -25.83 33.60 -22.89 6.83 20.45 3.05 -19.16 -49.26 9.40 
5.6254 31.0567 -16.2335 9.84 9.91 -17.65 -4.06 -35.33 7.96 -17.17 51.37 15.45 14.47 -28.76 2.97 -13.55 -56.38 -19.86 8.57 22.52 -63.35 -15.69 11.12 2.69 -1.44 12.79 -3.37 -1.91 14.28 -3.24 -27.17 3.89 -2.30 53.05 -27.75 9.00 26.29 -87.67 25.19 -11.36 5.36 47.82 19.62 0.70 -4.34 -66.61 -42.06 43.36 -152.15 -60.37 -153.69 -25.56 33.54 -22.91 6.44 20.65 2.99 -18.24 -49.24 9.26 
5.6701 31.1302 -16.8806 8.90 9.83 -16.96 -3.17 -35.98 8.24 -16.44 50.97 14.37 15.07 -27.74 2.95 -16.49 -57.53 -22.51 9.46 26.14 -58.18 -12.78 16.35 2.57 -1.66 12.95 -3.10 -1.47 14.21 -3.15 -27.23 3.86 -2.23 53.05 -27.78 9.01 22.27 -87.31 21.18 -10.98 5.29 48.01 19.60 0.69 -4.36 -66.06 -42.00 43.84 -151.63 -60.72 -153.15 -25.18 33.25 -22.93 6.26 20.48 2.94 -17.35 -48.96 9.26 
5.6819 31.2174 -17.5267 7.84 9.85 -16.04 -2.32 -36.74 8.31 -15.41 50.59 13.06 15.66 -26.48 2.87 -19.59 -58.42 -25.17 10.10 30.01 -51.65 -9.10 20.44 1.99 -1.31 12.98 -3.16 -1.79 14.30 -3.03 -26.87 3.82 -2.22 53.07 -27.88 9.10 20.08 -87.05 18.99 -10.93 5.33 47.93 19.88 0.72 -4.31 -65.51 -41.96 44.08 -151.18 -61.13 -152.65 -24.81 32.93 -23.01 6.53 20.37 2.77 -16.42 -48.91 9.17 
5.6561 31.3052 -18.1662 6.75 10.02 -15.13 -1.40 -37.73 8.33 -14.36 50.32 12.00 15.75 -25.07 2.66 -22.30 -59.21 -27.29 10.48 34.33 -45.11 -4.51 21.24 0.83 -0.68 12.92 -3.35 -2.57 14.35 -2.83 -26.37 3.75 -2.19 53.13 -28.00 9.21 18.98 -86.87 17.88 -11.13 5.37 47.64 20.29 0.77 -4.19 -65.01 -41.87 44.32 -150.80 -61.41 -152.24 -24.68 32.57 -23.16 7.05 20.35 2.54 -15.43 -49.07 9.08 
